<svg xmlns="http://www.w3.org/2000/svg" version="1.1" xmlns:xlink="http://www.w3.org/1999/xlink" xmlns:svgjs="http://svgjs.dev/svgjs" width="128" height="128" viewBox="0 0 128 128"><g transform="matrix(0.44782608695652176,0,0,0.44782608695652176,35.33913043478261,12.5)"><svg viewBox="0 0 125 225" data-background-color="#ffffff" preserveAspectRatio="xMidYMid meet" height="230" width="128" xmlns="http://www.w3.org/2000/svg" xmlns:xlink="http://www.w3.org/1999/xlink"><g id="tight-bounds" transform="matrix(1,0,0,1,0,0)"><svg viewBox="0 0 125 225" height="225" width="125"><g><svg></svg></g><g><svg viewBox="0 0 125 225" height="225" width="125"><g><path d="M8.188 130.945l1.455 1.82-0.727-2.366c-0.182-1.092-1.456 0.182-0.728 0.546M9.825 129.854c0.546 0.91 1.092 1.82 1.092 2.729 0 1.274 1.092 1.82 2.001 2.183-1.274-1.456-2.001-5.459-3.093-4.912M79.694 52.707c3.093 0 6.004-0.364 9.28 0.363 8.006 2.001 14.738 6.004 19.287 11.645l12.736 20.379c0.546 5.095 1.638 10.735 1.456 16.921 1.274 0 1.092-1.82 2.547-2.183-1.456 3.639-2.183 8.188-2.547 13.464-0.91-2.911 0-7.278 0.182-9.643-1.274 2.001-2.001 0.546-2.002-0.364 0.182-1.456-0.546-1.274-1.092-1.82-2.001-1.82-3.275-3.821-4.73-6.914 0.91-2.365 1.092-5.822-1.82-7.642-0.91-0.546-2.001-1.456-2.547-2.911-0.728-2.001-2.001-4.367-1.638-7.46 0.182-0.91-2.729 2.001-4.366 0.728-7.096-4.913-14.192-10.553-22.744-15.284-4.549 0-7.824-1.638-9.462-3.639-1.456-1.82-0.364-4.185 1.82-4.367 1.274 0 2.729-0.364 3.821 0.364 0.182-0.728 0.91-1.638 1.819-1.637M61.681 48.522l0.364 0.182c1.82 0.364 2.729 2.911 4.731 2.001 0 1.274 0.182 2.547-0.182 3.457-0.546 1.456-2.183 1.456-3.457 1.456-12.191-0.728-19.287 4.367-26.747 8.733-2.001 1.274-4.185 2.183-5.822 3.821-7.824 7.278-16.376 14.01-18.377 27.475l-1.638 14.92c-0.182 1.638-2.001 3.275-1.637 5.276l1.273 8.916c-1.274-1.274-2.001 0.364-1.637 1.092 0.182 0.546 0.91 2.365 2.001 0.727 1.456 2.729 2.911 8.006 4.913 10.372 6.186 7.278 14.192 13.828 20.742 20.378 1.638-0.364 2.911-0.364 3.275-1.456 0.546 1.092-0.546 2.183-1.455 2.366 2.911 1.82 6.186 3.457 10.553 3.821 5.64 0.364 10.917 1.274 15.829 2.547 2.547-0.728 5.095-1.092 7.824-1.274 0.91 0 1.456-1.456 2.548-1.819l0.182-1.82c1.092 1.638 0.91-0.546 0.182-1.637 1.274 1.092 1.638 2.001 2.183 2.729 0-0.546 1.456-2.547 1.456-0.182l0.363-2.365c0.546-0.364 0.728 2.001 1.274 0.364 0.546-1.638 1.638-0.364 2.729-0.91-0.364 0.728-0.182 2.183 1.092 1.274l1.456-1.274c0.91 2.183 2.365 1.274 3.093 0.91 8.006-5.095 16.012-11.099 23.653-17.104l-0.182 2.366 0.91-2.911c0.91 0.91 1.638 0.182 2.002-0.364 1.092-1.82 2.547-3.639 4.912-5.277-2.911 7.824-6.368 14.01-10.735 19.105l-1.819 2.183c0 1.274-0.364 2.911-1.82 3.093-0.728 0.182-2.183-0.364-3.275 0.728-0.546 0.728 1.274 2.183-0.182 1.092-1.274-0.91-2.547 0-4.003 0.364-1.092 0.364 0.728 1.456 1.092 2.183 0.364 0.728 0.728 1.456 0.546 2.366l-2.002-2.184c-2.365 1.274-3.821 3.639-5.822 5.459-0.91 0.728-0.546 2.001-0.546 3.093-1.274 0-2.729-0.364-3.457 0.364-0.546 0.728-0.364 1.82-0.364 2.911-1.82-0.182-2.001-2.911-3.639-2.365-1.638 0.364-3.457 0.546-4.913 1.455 1.092 2.183-1.82 0.91-1.455 1.274-2.729-1.638-5.095-2.911-8.006-1.82-6.186-2.001-13.828-1.092-19.469-0.364 0-0.91 0.182-1.82-0.182-2.001-0.364 0.91-1.456 0.546-1.273 0.546-3.457-2.365-6.914-3.821-10.553-5.823-3.275 0.364-6.368-1.274-7.278-2.183-2.547-2.365-5.459-1.092-7.824-1.638-5.095-1.274-6.914-6.55-7.46-10.189-0.364-1.82-1.82-2.547-2.366-2.365-2.365-7.642-6.004-14.556-8.915-21.652-0.728-1.82-0.546-3.639-0.546-5.641 0.91 0.364 1.82 0.182 1.638-1.091-0.91-6.004-3.093-10.553-5.459-14.92 1.274-6.186 1.456-13.464 4.367-18.923 2.547-4.913 7.278-7.46 10.553-11.645 1.092-1.456 1.092-3.457 2.183-4.731 3.639-3.639 7.278-7.46 11.281-10.735 1.82-1.456 4.003 0 6.732-0.546 0.91-3.275 4.549-6.186 8.006-5.276 1.456 0.364 4.367-3.457 5.277-3.821 1.456-0.546 0.728 1.456 0.728 2.729 3.457-2.729 8.188-4.185 12.554-5.822" fill="#50a060" fill-rule="nonzero" stroke="none" stroke-width="1" stroke-linecap="butt" stroke-linejoin="miter" stroke-miterlimit="10" stroke-dasharray="" stroke-dashoffset="0" font-family="none" font-weight="none" font-size="none" text-anchor="none" style="mix-blend-mode: normal" data-fill-palette-color="tertiary"></path></g><g transform="matrix(1,0,0,1,43.46801675977653,77.7375)"><svg viewBox="0 0 38.06396648044693 69.525" height="69.525" width="38.06396648044693"><g><svg viewBox="0 0 38.06396648044693 69.525" height="69.525" width="38.06396648044693"><g><svg viewBox="0 0 38.06396648044693 69.525" height="69.525" width="38.06396648044693"><g id="textblocktransform"><svg viewBox="0 0 38.06396648044693 69.525" height="69.525" width="38.06396648044693" id="textblock"><g><svg viewBox="0 0 38.06396648044693 69.525" height="69.525" width="38.06396648044693"><g transform="matrix(1,0,0,1,0,0)"><svg width="38.06396648044693" viewBox="0.7 -35.3 19.6 35.8" height="69.525" data-palette-color="#72b47f"><path d="M10.5 0.5L10.5 0.5Q7.8 0.5 5.58-0.88 3.35-2.25 2.02-4.53 0.7-6.8 0.7-9.55L0.7-9.55 0.7-11.85Q0.7-12.1 0.95-12.1L0.95-12.1 6.55-12.1Q6.75-12.1 6.75-11.85L6.75-11.85 6.75-9.55Q6.75-7.9 7.85-6.73 8.95-5.55 10.5-5.55L10.5-5.55Q12.05-5.55 13.15-6.75 14.25-7.95 14.25-9.55L14.25-9.55Q14.25-11.4 11.85-12.75L11.85-12.75Q11.05-13.2 9.35-14.15 7.65-15.1 6.15-15.95L6.15-15.95Q3.4-17.55 2.08-19.98 0.75-22.4 0.75-25.45L0.75-25.45Q0.75-28.25 2.1-30.48 3.45-32.7 5.68-34 7.9-35.3 10.5-35.3L10.5-35.3Q13.15-35.3 15.38-33.98 17.6-32.65 18.93-30.43 20.25-28.2 20.25-25.45L20.25-25.45 20.25-21.35Q20.25-21.15 20.05-21.15L20.05-21.15 14.45-21.15Q14.25-21.15 14.25-21.35L14.25-21.35 14.2-25.45Q14.2-27.2 13.1-28.3 12-29.4 10.5-29.4L10.5-29.4Q8.95-29.4 7.85-28.23 6.75-27.05 6.75-25.45L6.75-25.45Q6.75-23.8 7.45-22.7 8.15-21.6 10-20.6L10-20.6Q10.25-20.45 10.98-20.08 11.7-19.7 12.55-19.23 13.4-18.75 14.08-18.4 14.75-18.05 14.9-17.95L14.9-17.95Q17.4-16.55 18.85-14.53 20.3-12.5 20.3-9.55L20.3-9.55Q20.3-6.7 18.98-4.42 17.65-2.15 15.43-0.83 13.2 0.5 10.5 0.5Z" opacity="1" transform="matrix(1,0,0,1,0,0)" fill="#72b47f" class="wordmark-text-0" data-fill-palette-color="primary" id="text-0"></path></svg></g></svg></g></svg></g></svg></g><g></g></svg></g></svg></g></svg></g><defs></defs></svg><rect width="125" height="225" fill="none" stroke="none" visibility="hidden"></rect></g></svg></g></svg>